:FULLY-SPECIFIED
:FORCE-ALL-JOINTS-BE-3DOF
:DEGREES
408
root 4.48302 16.2918 -10.9947 3.71115 -34.6864 -4.72408
lfemur -28.9827 2.24052 -5.88611
ltibia 42.5012 -0 0
lfoot -11.0004 13.9871 0.231629
ltoes -2.16366 0 0
rfemur -31.3693 -15.3698 21.9063
rtibia 69.8525 -0 0
rfoot 4.64075 -1.47825 0.065779
rtoes 24.2377 -0 0
lowerback 4.88461 4.08994 1.37138
upperback 1.63893 5.48052 -1.34293
thorax -0.788594 2.74113 -2.41478
lowerneck -6.18784 2.17431 7.69751
upperneck 4.16538 2.22319 0.380705
head 2.53209 1.23644 -1.13117
lclavicle -1.63003e-14 -1.43125e-14 0
lhumerus -44.742 -19.3093 94.4988
lradius 50.225 -0 0
lwrist 17.1094 0 0
lhand -16.1691 3.22776 0.0539052
lfingers 7.12502 -0 0
lthumb 10.0364 32.9547 0.0500101
rclavicle -1.63003e-14 -1.43125e-14 0
rhumerus -45.9389 8.94326 -91.3248
rradius 63.2347 -0 0
rwrist 9.29768 0 0
rhand -22.223 -18.5415 0.0548674
rfingers 7.12502 -0 0
rthumb 4.19321 -48.4355 0.0527452
409
root 4.46108 16.2836 -10.9304 3.53403 -34.7498 -4.68771
lfemur -28.6554 2.57471 -5.81086
ltibia 43.254 -0 0
lfoot -11.7772 13.6289 0.255557
ltoes -2.4399 0 0
rfemur -32.4072 -14.9021 20.9996
rtibia 69.2485 -0 0
rfoot 5.03936 -1.41584 0.0677603
rtoes 23.3667 -0 0
lowerback 5.03832 4.02047 1.42318
upperback 1.65919 5.39089 -1.36539
thorax -0.85171 2.69569 -2.47203
lowerneck -6.19703 2.38 7.8725
upperneck 4.22412 2.49681 0.108364
head 2.57508 1.36837 -1.23991
lclavicle -1.63003e-14 -1.43125e-14 0
lhumerus -44.7396 -19.3498 94.5838
lradius 50.0164 -0 0
lwrist 16.837 0 0
lhand -16.5052 2.9755 0.0602115
lfingers 7.12502 -0 0
lthumb 9.71209 32.7154 0.0557541
rclavicle -1.63003e-14 -1.43125e-14 0
rhumerus -46.044 8.58402 -91.0658
rradius 63.7637 -0 0
rwrist 9.50074 0 0
rhand -22.9369 -18.6683 0.0577645
rfingers 7.12502 -0 0
rthumb 3.5039 -48.5739 0.0553026
410
root 4.43968 16.2748 -10.8748 3.36575 -34.7857 -4.65684
lfemur -28.3518 2.95896 -5.74254
ltibia 44.0506 -0 0
lfoot -12.5708 13.2358 0.27372
ltoes -2.69095 0 0
rfemur -33.4589 -14.4025 20.0766
rtibia 68.5612 -0 0
rfoot 5.39124 -1.34722 0.0681752
rtoes 22.4567 -0 0
lowerback 5.19682 3.94523 1.48179
upperback 1.68197 5.29418 -1.38412
thorax -0.915076 2.64668 -2.52922
lowerneck -6.20865 2.58536 8.04398
upperneck 4.27416 2.77059 -0.169038
head 2.61622 1.50004 -1.34962
lclavicle -1.63003e-14 -1.43125e-14 0
lhumerus -44.7268 -19.3989 94.6692
lradius 49.8114 -0 0
lwrist 16.5569 0 0
lhand -16.8642 2.71311 0.0651061
lfingers 7.12502 -0 0
lthumb 9.36557 32.4668 0.0601892
rclavicle -1.63003e-14 -1.43125e-14 0
rhumerus -46.137 8.22558 -90.8054
rradius 64.2971 -0 0
rwrist 9.71193 0 0
rhand -23.6482 -18.7987 0.0590429
rfingers 7.12502 -0 0
rthumb 2.81704 -48.7154 0.0562499
411
root 4.41675 16.265 -10.8252 3.20815 -34.7938 -4.63191
lfemur -28.0749 3.38869 -5.68165
ltibia 44.882 -0 0
lfoot -13.3727 12.8125 0.28513
ltoes -2.9144 0 0
rfemur -34.5138 -13.8773 19.1464
rtibia 67.7989 -0 0
rfoot 5.69311 -1.27322 0.0670648
rtoes 21.5178 -0 0
lowerback 5.35832 3.86507 1.54647
upperback 1.70697 5.19152 -1.39897
thorax -0.977999 2.59466 -2.58574
lowerneck -6.22257 2.78819 8.21014
upperneck 4.31501 3.04152 -0.448526
head 2.65509 1.63002 -1.4591
lclavicle -1.63003e-14 -1.43125e-14 0
lhumerus -44.7037 -19.4558 94.754
lradius 49.6122 -0 0
lwrist 16.2723 0 0
lhand -17.2422 2.44352 0.0683112
lfingers 7.12502 -0 0
lthumb 9.00085 32.2117 0.0630644
rclavicle -1.63003e-14 -1.43125e-14 0
rhumerus -46.217 7.87171 -90.5466
rradius 64.829 -0 0
rwrist 9.92887 0 0
rhand -24.3494 -18.9314 0.0586561
rfingers 7.12502 -0 0
rthumb 2.13998 -48.8583 0.055558
412
root 4.39022 16.2534 -10.7791 3.06305 -34.7742 -4.61335
lfemur -27.8277 3.85934 -5.62886
ltibia 45.7392 -0 0
lfoot -14.1739 12.3638 0.289039
ltoes -3.10779 0 0
rfemur -35.561 -13.3322 18.2186
rtibia 66.9699 -0 0
rfoot 5.94168 -1.19466 0.064502
rtoes 20.5603 -0 0
lowerback 5.52105 3.78084 1.61649
upperback 1.73392 5.08403 -1.40977
thorax -1.03979 2.54019 -2.64097
lowerneck -6.23871 2.98628 8.36914
upperneck 4.34625 3.3066 -0.72713
head 2.69128 1.75689 -1.56718
lclavicle -1.63003e-14 -1.43125e-14 0
lhumerus -44.6706 -19.5201 94.8372
lradius 49.421 -0 0
lwrist 15.9863 0 0
lhand -17.6348 2.16968 0.0696172
lfingers 7.12502 -0 0
lthumb 8.62192 31.9528 0.064192
rclavicle -1.63003e-14 -1.43125e-14 0
rhumerus -46.2831 7.52615 -90.2923
rradius 65.3537 -0 0
rwrist 10.1492 0 0
rhand -25.0327 -19.0648 0.0566295
rfingers 7.12502 -0 0
rthumb 1.48011 -49.0012 0.0532722
413
root 4.35804 16.2396 -10.7338 2.93225 -34.7268 -4.60155
lfemur -27.6134 4.36632 -5.58499
ltibia 46.6131 -0 0
lfoot -14.9657 11.8942 0.284966
ltoes -3.26871 0 0
rfemur -36.5892 -12.7722 17.303
rtibia 66.0826 -0 0
rfoot 6.13364 -1.11235 0.0605887
rtoes 19.5944 -0 0
lowerback 5.68323 3.69338 1.69114
upperback 1.76253 4.97281 -1.41638
thorax -1.09977 2.48385 -2.69428
lowerneck -6.25697 3.17742 8.51917
upperneck 4.36752 3.56279 -1.00188
head 2.72437 1.87923 -1.67268
lclavicle -1.63003e-14 -1.43125e-14 0
lhumerus -44.6277 -19.5911 94.918
lradius 49.2399 -0 0
lwrist 15.702 0 0
lhand -18.0381 1.89455 0.0688902
lfingers 7.12502 -0 0
lthumb 8.23276 31.6931 0.0634532
rclavicle -1.63003e-14 -1.43125e-14 0
rhumerus -46.3343 7.19266 -90.0455
rradius 65.8653 -0 0
rwrist 10.3706 0 0
rhand -25.6906 -19.1976 0.0530596
rfingers 7.12502 -0 0
rthumb 0.844805 -49.1424 0.0495107
414
root 4.31813 16.223 -10.6867 2.81752 -34.6516 -4.59688
lfemur -27.4351 4.90505 -5.55102
ltibia 47.4945 -0 0
lfoot -15.7393 11.4087 0.272708
ltoes -3.39471 0 0
rfemur -37.5872 -12.2015 16.4097
rtibia 65.1451 -0 0
rfoot 6.26573 -1.02708 0.0554535
rtoes 18.6303 -0 0
lowerback 5.8431 3.60356 1.7697
upperback 1.79252 4.85898 -1.41864
thorax -1.15725 2.42622 -2.74507
lowerneck -6.2773 3.35943 8.65841
upperneck 4.3785 3.80707 -1.2698
head 2.75398 1.99561 -1.77443
lclavicle -1.63003e-14 -1.43125e-14 0
lhumerus -44.5754 -19.6683 94.9955
lradius 49.0711 -0 0
lwrist 15.4225 0 0
lhand -18.4478 1.62106 0.0660753
lfingers 7.12502 -0 0
lthumb 7.83734 31.4351 0.0608016
rclavicle -1.63003e-14 -1.43125e-14 0
rhumerus -46.3695 6.87496 -89.8091
rradius 66.3581 -0 0
rwrist 10.5906 0 0
rhand -26.3154 -19.3281 0.0481111
rfingers 7.12502 -0 0
rthumb 0.241441 -49.2804 0.0444616
415
root 4.26842 16.203 -10.6352 2.7206 -34.5484 -4.59967
lfemur -27.2959 5.47094 -5.5281
ltibia 48.3746 -0 0
lfoot -16.4858 10.9119 0.25235
ltoes -3.48337 0 0
rfemur -38.5431 -11.6236 15.5494
rtibia 64.1659 -0 0
rfoot 6.33464 -0.939681 0.0492482
rtoes 17.6782 -0 0
lowerback 5.99887 3.51225 1.85148
upperback 1.82361 4.74366 -1.4164
thorax -1.21155 2.36787 -2.79273
lowerneck -6.29967 3.53008 8.78504
upperneck 4.37895 4.03641 -1.52792
head 2.77973 2.1046 -1.87125
lclavicle -1.63003e-14 -1.43125e-14 0
lhumerus -44.5139 -19.7509 95.0685
lradius 48.9168 -0 0
lwrist 15.1509 0 0
lhand -18.8599 1.35218 0.0611995
lfingers 7.12502 -0 0
lthumb 7.43965 31.1819 0.0562653
rclavicle -1.63003e-14 -1.43125e-14 0
rhumerus -46.3877 6.57679 -89.586
rradius 66.8263 -0 0
rwrist 10.8069 0 0
rhand -26.8995 -19.4551 0.0420127
rfingers 7.12502 -0 0
rthumb -0.322608 -49.4137 0.0383768
416
root 4.20686 16.179 -10.5766 2.64318 -34.4171 -4.61018
lfemur -27.1991 6.05939 -5.51749
ltibia 49.2441 -0 0
lfoot -17.1964 10.4085 0.224268
ltoes -3.53224 0 0
rfemur -39.445 -11.0416 14.7327
rtibia 63.1532 -0 0
rfoot 6.33708 -0.850931 0.0421445
rtoes 16.7484 -0 0
lowerback 6.1488 3.42032 1.9358
upperback 1.8555 4.62796 -1.40949
thorax -1.262 2.30938 -2.83664
lowerneck -6.32403 3.68717 8.89725
upperneck 4.36863 4.24779 -1.77325
head 2.80122 2.20476 -1.96196
lclavicle -1.63003e-14 -1.43125e-14 0
lhumerus -44.4433 -19.8385 95.1363
lradius 48.7791 -0 0
lwrist 14.8903 0 0
lhand -19.2703 1.09085 0.0543712
lfingers 7.12502 -0 0
lthumb 7.04366 30.936 0.0499471
rclavicle -1.63003e-14 -1.43125e-14 0
rhumerus -46.3877 6.30188 -89.3793
rradius 67.264 -0 0
rwrist 11.0172 0 0
rhand -27.4352 -19.577 0.0350497
rfingers 7.12502 -0 0
rthumb -0.83997 -49.5405 0.0315648
417
root 4.13137 16.1505 -10.5084 2.58693 -34.2578 -4.62866
lfemur -27.148 6.66575 -5.52063
ltibia 50.0942 -0 0
lfoot -17.8624 9.90316 0.189121
ltoes -3.53891 0 0
rfemur -40.2806 -10.4578 13.9709
rtibia 62.1152 -0 0
rfoot 6.26977 -0.761631 0.0343299
rtoes 15.8511 -0 0
lowerback 6.29112 3.32867 2.02196
upperback 1.8879 4.51299 -1.39776
thorax -1.30791 2.25132 -2.87621
lowerneck -6.35038 3.82848 8.99322
upperneck 4.34738 4.43818 -2.00279
head 2.8181 2.29466 -2.04539
lclavicle -1.63003e-14 -1.43125e-14 0
lhumerus -44.364 -19.9303 95.1978
lradius 48.6602 -0 0
lwrist 14.6438 0 0
lhand -19.6747 0.840017 0.0457783
lfingers 7.12502 -0 0
lthumb 6.65335 30.7004 0.0420217
rclavicle -1.63003e-14 -1.43125e-14 0
rhumerus -46.3683 6.05396 -89.1917
rradius 67.6655 -0 0
rwrist 11.219 0 0
rhand -27.9149 -19.6923 0.0275558
rfingers 7.12502 -0 0
rthumb -1.30327 -49.6595 0.0243815
418
root 4.03989 16.1169 -10.428 2.55346 -34.0703 -4.65526
lfemur -27.146 7.28539 -5.53906
ltibia 50.9156 -0 0
lfoot -18.475 9.40056 0.147836
ltoes -3.50093 0 0
rfemur -41.0374 -9.87404 13.2755
rtibia 61.0604 -0 0
rfoot 6.12942 -0.67257 0.0260031
rtoes 14.9965 -0 0
lowerback 6.42409 3.2382 2.10932
upperback 1.92054 4.39987 -1.38104
thorax -1.34862 2.19429 -2.91082
lowerneck -6.3787 3.95179 9.07115
upperneck 4.31505 4.60458 -2.21352
head 2.82999 2.37288 -2.12038
lclavicle -1.63003e-14 -1.43125e-14 0
lhumerus -44.2761 -20.0258 95.2521
lradius 48.5624 -0 0
lwrist 14.4144 0 0
lhand -20.0691 0.602631 0.0356838
lfingers 7.12502 -0 0
lthumb 6.2727 30.4779 0.0327323
rclavicle -1.63003e-14 -1.43125e-14 0
rhumerus -46.3283 5.83678 -89.0264
rradius 68.025 -0 0
rwrist 11.4101 0 0
rhand -28.3309 -19.7998 0.0199027
rfingers 7.12502 -0 0
rthumb -1.70515 -49.7691 0.017218
419
root 3.93035 16.0775 -10.3327 2.54436 -33.8546 -4.69009
lfemur -27.1965 7.91359 -5.57446
ltibia 51.6994 -0 0
lfoot -19.0253 8.90529 0.101591
ltoes -3.41587 0 0
rfemur -41.7026 -9.29201 12.6582
rtibia 59.997 -0 0
rfoot 5.91273 -0.584538 0.0173691
rtoes 14.1948 -0 0
lowerback 6.54595 3.14981 2.19722
upperback 1.95312 4.28971 -1.35917
thorax -1.38345 2.13885 -2.93989
lowerneck -6.40897 4.05489 9.12923
upperneck 4.27151 4.74398 -2.40242
head 2.83654 2.43797 -2.18574
lclavicle -1.63003e-14 -1.43125e-14 0
lhumerus -44.1799 -20.1243 95.2982
lradius 48.4877 -0 0
lwrist 14.2054 0 0
lhand -20.4494 0.381629 0.0244196
lfingers 7.12502 -0 0
lthumb 5.90568 30.2711 0.0223847
rclavicle -1.63003e-14 -1.43125e-14 0
rhumerus -46.2664 5.65411 -88.886
rradius 68.3367 -0 0
rwrist 11.588 0 0
rhand -28.6757 -19.8979 0.0124875
rfingers 7.12502 -0 0
rthumb -2.03822 -49.8678 0.010488
420
root 3.80069 16.032 -10.2199 2.56114 -33.6104 -4.7332
lfemur -27.303 8.5456 -5.62861
ltibia 52.4365 -0 0
lfoot -19.5046 8.4219 0.0517844
ltoes -3.2813 0 0
rfemur -42.2632 -8.71307 12.1311
rtibia 58.9334 -0 0
rfoot 5.61643 -0.498321 0.00863429
rtoes 13.4563 -0 0
lowerback 6.65497 3.06442 2.285
upperback 1.98536 4.18363 -1.33198
thorax -1.41173 2.08559 -2.9628
lowerneck -6.44117 4.13554 9.16565
upperneck 4.21663 4.85341 -2.56642
head 2.83736 2.48851 -2.2403
lclavicle -1.63003e-14 -1.43125e-14 0
lhumerus -44.0756 -20.2252 95.3352
lradius 48.4383 -0 0
lwrist 14.0197 0 0
lhand -20.8115 0.179944 0.0123777
lfingers 7.12502 -0 0
lthumb 5.55626 30.0829 0.011339
rclavicle -1.63003e-14 -1.43125e-14 0
rhumerus -46.1814 5.50976 -88.7736
rradius 68.5949 -0 0
rwrist 11.7504 0 0
rhand -28.9416 -19.9853 0.0057187
rfingers 7.12502 -0 0
rthumb -2.29514 -49.9539 0.00461195
